<svg width="30" height="30" viewBox="0 0 30 30" fill="none" xmlns="http://www.w3.org/2000/svg">
<path d="M13 15C12.4477 15 12 15.4477 12 16C12 16.5523 12.4477 17 13 17H17C17.5522 17 18 16.5523 18 16C18 15.4477 17.5522 15 17 15H13Z" fill="#FFAE00"/>
<path fill-rule="evenodd" clip-rule="evenodd" d="M7 5C5.34314 5 4 6.34314 4 8V22C4 23.6569 5.34314 25 7 25H23C24.6569 25 26 23.6569 26 22V8C26 6.34314 24.6569 5 23 5H7ZM23 7H7C6.44769 7 6 7.44769 6 8V11H24V8C24 7.44769 23.5522 7 23 7ZM6 22V13H24V22C24 22.5523 23.5522 23 23 23H7C6.44769 23 6 22.5523 6 22Z" fill="#FFAE00"/>
</svg>
