<svg width="30" height="30" viewBox="0 0 30 30" fill="none" xmlns="http://www.w3.org/2000/svg">
<path d="M7 12C7 11.4477 7.44772 11 8 11H12C12.5523 11 13 11.4477 13 12C13 12.5523 12.5523 13 12 13H8C7.44772 13 7 12.5523 7 12Z" fill="#FFAE00"/>
<path fill-rule="evenodd" clip-rule="evenodd" d="M7 6C4.79086 6 3 7.79086 3 10V20C3 22.2091 4.79086 24 7 24H23C25.2091 24 27 22.2091 27 20V10C27 7.79086 25.2091 6 23 6H7ZM23 8H7C5.89543 8 5 8.89543 5 10V17H25V10C25 8.89543 24.1046 8 23 8ZM25 19H5V20C5 21.1046 5.89543 22 7 22H23C24.1046 22 25 21.1046 25 20V19Z" fill="#FFAE00"/>
</svg>
