<svg width="30" height="30" viewBox="0 0 30 30" fill="none" xmlns="http://www.w3.org/2000/svg">
<path d="M3.75329 5.62451V7.50149H6.56213V5.62451H3.75329ZM7.49597 5.62451V7.50149H18.6251L16.9845 20.6228H11.072C10.6809 19.5377 9.64874 18.746 8.43713 18.746C7.22553 18.746 6.19335 19.5377 5.80224 20.6228H1.87646V22.4978H5.80042C6.18999 23.5839 7.22351 24.3729 8.43713 24.3729C9.65076 24.3729 10.6843 23.5839 11.0739 22.4978H17.9897C18.3795 23.5836 19.4112 24.3729 20.6246 24.3729C21.8383 24.3729 22.8718 23.5839 23.2614 22.4978H25.3103C25.73 22.5007 26.1002 22.2235 26.2167 21.8203L28.0862 15.2596C28.1401 15.0736 28.135 14.875 28.0717 14.6919L26.1197 9.06509C25.9886 8.6878 25.6329 8.43511 25.2335 8.43532H20.3977L20.6174 6.67751C20.6865 6.11983 20.2529 5.62689 19.6909 5.62451H7.49597ZM1.87646 9.37652V11.2515H4.68713V9.37652H1.87646ZM5.6283 9.37652V11.2515H11.2478V9.37652H5.6283ZM20.1632 10.3104H24.5687L26.202 15.0234L24.6035 20.6228H23.2595C22.8684 19.5377 21.8362 18.746 20.6246 18.746C20.0421 18.746 19.4987 18.9291 19.0481 19.2385L20.1632 10.3104ZM3.75329 13.1264V15.0033H8.43713V13.1264H3.75329ZM9.3728 13.1264V15.0033H12.189V13.1264H9.3728ZM1.87646 16.871V18.746H4.68713V16.871H1.87646ZM8.43713 20.6228C8.966 20.6228 9.3728 21.0351 9.3728 21.564C9.3728 22.0929 8.966 22.4978 8.43713 22.4978C7.90826 22.4978 7.49597 22.0929 7.49597 21.564C7.49597 21.0351 7.90826 20.6228 8.43713 20.6228ZM20.6246 20.6228C21.1535 20.6228 21.5585 21.0351 21.5585 21.564C21.5585 22.0929 21.1535 22.4978 20.6246 22.4978C20.0958 22.4978 19.6908 22.0929 19.6908 21.564C19.6908 21.0351 20.0958 20.6228 20.6246 20.6228Z" fill="#FFAE00"/>
</svg>
