<svg width="94" height="14" viewBox="0 0 94 14" fill="none" xmlns="http://www.w3.org/2000/svg">
<g clip-path="url(#clip0_9746_267)">
<path d="M13.9634 5.36979C13.8712 5.08631 13.6198 4.88561 13.3235 4.8588L9.28208 4.49189L7.68491 0.752571C7.56698 0.477847 7.29867 0.300537 7.00002 0.300537C6.70137 0.300537 6.43295 0.477847 6.31577 0.752571L4.71859 4.49189L0.676564 4.8588C0.380264 4.88614 0.129359 5.08684 0.0366454 5.36979C-0.0555345 5.65327 0.0295957 5.96421 0.25369 6.16074L3.30866 8.83951L2.4079 12.8068C2.342 13.0985 2.45522 13.4001 2.69726 13.5751C2.82736 13.6696 2.98021 13.7168 3.13359 13.7168C3.2654 13.7168 3.39731 13.6818 3.51513 13.6113L7.00002 11.5276L10.4843 13.6113C10.7399 13.764 11.0613 13.75 11.3028 13.5751C11.5448 13.4001 11.658 13.0985 11.5921 12.8068L10.6914 8.83951L13.7463 6.16074C13.9703 5.96421 14.0556 5.65391 13.9634 5.36979Z" fill="#F2994A"/>
</g>
<g clip-path="url(#clip1_9746_267)">
<path d="M33.9634 5.36979C33.8712 5.08631 33.6198 4.88561 33.3235 4.8588L29.2821 4.49189L27.6849 0.752571C27.567 0.477847 27.2987 0.300537 27 0.300537C26.7014 0.300537 26.4329 0.477847 26.3158 0.752571L24.7186 4.49189L20.6766 4.8588C20.3803 4.88614 20.1294 5.08684 20.0366 5.36979C19.9445 5.65327 20.0296 5.96421 20.2537 6.16074L23.3087 8.83951L22.4079 12.8068C22.342 13.0985 22.4552 13.4001 22.6973 13.5751C22.8274 13.6696 22.9802 13.7168 23.1336 13.7168C23.2654 13.7168 23.3973 13.6818 23.5151 13.6113L27 11.5276L30.4843 13.6113C30.7399 13.764 31.0613 13.75 31.3028 13.5751C31.5448 13.4001 31.658 13.0985 31.5921 12.8068L30.6914 8.83951L33.7463 6.16074C33.9703 5.96421 34.0556 5.65391 33.9634 5.36979Z" fill="#F2994A"/>
</g>
<g clip-path="url(#clip2_9746_267)">
<path d="M53.9634 5.36979C53.8712 5.08631 53.6198 4.88561 53.3235 4.8588L49.2821 4.49189L47.6849 0.752571C47.567 0.477847 47.2987 0.300537 47 0.300537C46.7014 0.300537 46.4329 0.477847 46.3158 0.752571L44.7186 4.49189L40.6766 4.8588C40.3803 4.88614 40.1294 5.08684 40.0366 5.36979C39.9445 5.65327 40.0296 5.96421 40.2537 6.16074L43.3087 8.83951L42.4079 12.8068C42.342 13.0985 42.4552 13.4001 42.6973 13.5751C42.8274 13.6696 42.9802 13.7168 43.1336 13.7168C43.2654 13.7168 43.3973 13.6818 43.5151 13.6113L47 11.5276L50.4843 13.6113C50.7399 13.764 51.0613 13.75 51.3028 13.5751C51.5448 13.4001 51.658 13.0985 51.5921 12.8068L50.6914 8.83951L53.7463 6.16074C53.9703 5.96421 54.0556 5.65391 53.9634 5.36979Z" fill="#F2994A"/>
</g>
<g clip-path="url(#clip3_9746_267)">
<path d="M73.9634 5.36979C73.8712 5.08631 73.6198 4.88561 73.3235 4.8588L69.2821 4.49189L67.6849 0.752571C67.567 0.477847 67.2987 0.300537 67 0.300537C66.7014 0.300537 66.4329 0.477847 66.3158 0.752571L64.7186 4.49189L60.6766 4.8588C60.3803 4.88614 60.1294 5.08684 60.0366 5.36979C59.9445 5.65327 60.0296 5.96421 60.2537 6.16074L63.3087 8.83951L62.4079 12.8068C62.342 13.0985 62.4552 13.4001 62.6973 13.5751C62.8274 13.6696 62.9802 13.7168 63.1336 13.7168C63.2654 13.7168 63.3973 13.6818 63.5151 13.6113L67 11.5276L70.4843 13.6113C70.7399 13.764 71.0613 13.75 71.3028 13.5751C71.5448 13.4001 71.658 13.0985 71.5921 12.8068L70.6914 8.83951L73.7463 6.16074C73.9703 5.96421 74.0556 5.65391 73.9634 5.36979Z" fill="#F2994A"/>
</g>
<g clip-path="url(#clip4_9746_267)">
<path d="M93.9634 5.36979C93.8712 5.08631 93.6198 4.88561 93.3235 4.8588L89.2821 4.49189L87.6849 0.752571C87.567 0.477847 87.2987 0.300537 87 0.300537C86.7014 0.300537 86.4329 0.477847 86.3158 0.752571L84.7186 4.49189L80.6766 4.8588C80.3803 4.88614 80.1294 5.08684 80.0366 5.36979C79.9445 5.65327 80.0296 5.96421 80.2537 6.16074L83.3087 8.83951L82.4079 12.8068C82.342 13.0985 82.4552 13.4001 82.6973 13.5751C82.8274 13.6696 82.9802 13.7168 83.1336 13.7168C83.2654 13.7168 83.3973 13.6818 83.5151 13.6113L87 11.5276L90.4843 13.6113C90.7399 13.764 91.0613 13.75 91.3028 13.5751C91.5448 13.4001 91.658 13.0985 91.5921 12.8068L90.6914 8.83951L93.7463 6.16074C93.9703 5.96421 94.0556 5.65391 93.9634 5.36979Z" fill="#DAE0E6"/>
</g>
<defs>
<clipPath id="clip0_9746_267">
<rect width="14" height="14" fill="white"/>
</clipPath>
<clipPath id="clip1_9746_267">
<rect width="14" height="14" fill="white" transform="translate(20)"/>
</clipPath>
<clipPath id="clip2_9746_267">
<rect width="14" height="14" fill="white" transform="translate(40)"/>
</clipPath>
<clipPath id="clip3_9746_267">
<rect width="14" height="14" fill="white" transform="translate(60)"/>
</clipPath>
<clipPath id="clip4_9746_267">
<rect width="14" height="14" fill="white" transform="translate(80)"/>
</clipPath>
</defs>
</svg>
